<svg id="visual" viewBox="0 0 900 600" width="900" height="600" xmlns="http://www.w3.org/2000/svg" xmlns:xlink="http://www.w3.org/1999/xlink" version="1.1"><path d="M0 85L13.7 80C27.3 75 54.7 65 82 60C109.3 55 136.7 55 163.8 66C191 77 218 99 245.2 103C272.3 107 299.7 93 327 91C354.3 89 381.7 99 409 102C436.3 105 463.7 101 491 93C518.3 85 545.7 73 573 74C600.3 75 627.7 89 654.8 89C682 89 709 75 736.2 75C763.3 75 790.7 89 818 89C845.3 89 872.7 75 886.3 68L900 61L900 0L886.3 0C872.7 0 845.3 0 818 0C790.7 0 763.3 0 736.2 0C709 0 682 0 654.8 0C627.7 0 600.3 0 573 0C545.7 0 518.3 0 491 0C463.7 0 436.3 0 409 0C381.7 0 354.3 0 327 0C299.7 0 272.3 0 245.2 0C218 0 191 0 163.8 0C136.7 0 109.3 0 82 0C54.7 0 27.3 0 13.7 0L0 0Z" fill="#37b71f"></path><path d="M0 235L13.7 220C27.3 205 54.7 175 82 182C109.3 189 136.7 233 163.8 250C191 267 218 257 245.2 251C272.3 245 299.7 243 327 259C354.3 275 381.7 309 409 301C436.3 293 463.7 243 491 216C518.3 189 545.7 185 573 188C600.3 191 627.7 201 654.8 211C682 221 709 231 736.2 242C763.3 253 790.7 265 818 276C845.3 287 872.7 297 886.3 302L900 307L900 59L886.3 66C872.7 73 845.3 87 818 87C790.7 87 763.3 73 736.2 73C709 73 682 87 654.8 87C627.7 87 600.3 73 573 72C545.7 71 518.3 83 491 91C463.7 99 436.3 103 409 100C381.7 97 354.3 87 327 89C299.7 91 272.3 105 245.2 101C218 97 191 75 163.8 64C136.7 53 109.3 53 82 58C54.7 63 27.3 73 13.7 78L0 83Z" fill="#42d627"></path><path d="M0 301L13.7 287C27.3 273 54.7 245 82 255C109.3 265 136.7 313 163.8 334C191 355 218 349 245.2 336C272.3 323 299.7 303 327 309C354.3 315 381.7 347 409 344C436.3 341 463.7 303 491 282C518.3 261 545.7 257 573 257C600.3 257 627.7 261 654.8 270C682 279 709 293 736.2 312C763.3 331 790.7 355 818 365C845.3 375 872.7 371 886.3 369L900 367L900 305L886.3 300C872.7 295 845.3 285 818 274C790.7 263 763.3 251 736.2 240C709 229 682 219 654.8 209C627.7 199 600.3 189 573 186C545.7 183 518.3 187 491 214C463.7 241 436.3 291 409 299C381.7 307 354.3 273 327 257C299.7 241 272.3 243 245.2 249C218 255 191 265 163.8 248C136.7 231 109.3 187 82 180C54.7 173 27.3 203 13.7 218L0 233Z" fill="#4df530"></path><path d="M0 391L13.7 383C27.3 375 54.7 359 82 373C109.3 387 136.7 431 163.8 440C191 449 218 423 245.2 413C272.3 403 299.7 409 327 425C354.3 441 381.7 467 409 466C436.3 465 463.7 437 491 424C518.3 411 545.7 413 573 404C600.3 395 627.7 375 654.8 383C682 391 709 427 736.2 439C763.3 451 790.7 439 818 433C845.3 427 872.7 427 886.3 427L900 427L900 365L886.3 367C872.7 369 845.3 373 818 363C790.7 353 763.3 329 736.2 310C709 291 682 277 654.8 268C627.7 259 600.3 255 573 255C545.7 255 518.3 259 491 280C463.7 301 436.3 339 409 342C381.7 345 354.3 313 327 307C299.7 301 272.3 321 245.2 334C218 347 191 353 163.8 332C136.7 311 109.3 263 82 253C54.7 243 27.3 271 13.7 285L0 299Z" fill="#73f85b"></path><path d="M0 601L13.7 601C27.3 601 54.7 601 82 601C109.3 601 136.7 601 163.8 601C191 601 218 601 245.2 601C272.3 601 299.7 601 327 601C354.3 601 381.7 601 409 601C436.3 601 463.7 601 491 601C518.3 601 545.7 601 573 601C600.3 601 627.7 601 654.8 601C682 601 709 601 736.2 601C763.3 601 790.7 601 818 601C845.3 601 872.7 601 886.3 601L900 601L900 425L886.3 425C872.7 425 845.3 425 818 431C790.7 437 763.3 449 736.2 437C709 425 682 389 654.8 381C627.7 373 600.3 393 573 402C545.7 411 518.3 409 491 422C463.7 435 436.3 463 409 464C381.7 465 354.3 439 327 423C299.7 407 272.3 401 245.2 411C218 421 191 447 163.8 438C136.7 429 109.3 385 82 371C54.7 357 27.3 373 13.7 381L0 389Z" fill="#90fa7d"></path></svg>